<svg width="800" height="900" viewBox="0 0 800 900" xmlns="http://www.w3.org/2000/svg" xmlns:xlink="http://www.w3.org/1999/xlink">
  <defs>
    <style>
      @keyframes float1 {
        0% { transform: translate(-160px, -135px) scale(1); }
        100% { transform: translate(-120px, -90px) scale(1.1); }
      }
      @keyframes float2 {
        0% { transform: translate(560px, 540px) scale(1); }
        100% { transform: translate(480px, 495px) scale(1.15); }
      }
      @keyframes float3 {
        0% { transform: translate(120px, 495px) scale(1); opacity: 0.3; }
        100% { transform: translate(80px, 540px) scale(1.05); opacity: 0.6; }
      }
      @keyframes pulse {
        0% { opacity: 0.3; transform: translate(400px, 450px) scale(0.9); }
        100% { opacity: 0.7; transform: translate(400px, 450px) scale(1.1); }
      }
      @keyframes blink {
        0%, 100% { opacity: 1; }
        50% { opacity: 0.4; }
      }
      @keyframes p1 {
        0% { transform: translate(0,0); opacity: 0; }
        10% { opacity: 0.15; }
        90% { opacity: 0.1; }
        100% { transform: translate(-20px, -60px); opacity: 0; }
      }
      @keyframes p2 {
        0% { transform: translate(0,0); opacity: 0; }
        10% { opacity: 0.2; }
        90% { opacity: 0.08; }
        100% { transform: translate(15px, -80px); opacity: 0; }
      }
      @keyframes p3 {
        0% { transform: translate(0,0); opacity: 0; }
        10% { opacity: 0.12; }
        90% { opacity: 0.1; }
        100% { transform: translate(-10px, -50px); opacity: 0; }
      }
      @keyframes p4 {
        0% { transform: translate(0,0); opacity: 0; }
        10% { opacity: 0.18; }
        90% { opacity: 0.06; }
        100% { transform: translate(20px, -70px); opacity: 0; }
      }
      @keyframes p5 {
        0% { transform: translate(0,0); opacity: 0; }
        10% { opacity: 0.14; }
        90% { opacity: 0.08; }
        100% { transform: translate(-15px, -55px); opacity: 0; }
      }
      @keyframes p6 {
        0% { transform: translate(0,0); opacity: 0; }
        10% { opacity: 0.16; }
        90% { opacity: 0.1; }
        100% { transform: translate(10px, -65px); opacity: 0; }
      }

      .sphere1 { animation: float1 15s ease-in-out infinite alternate; }
      .sphere2 { animation: float2 18s ease-in-out infinite alternate; }
      .sphere3 { animation: float3 20s ease-in-out infinite alternate; }
      .glow-el { animation: pulse 8s ease-in-out infinite alternate; }
      .dot-blink { animation: blink 2s ease-in-out infinite; }
      .pt1 { animation: p1 12s ease-in-out infinite; animation-delay: 0s; }
      .pt2 { animation: p2 14s ease-in-out infinite; animation-delay: -3s; }
      .pt3 { animation: p3 10s ease-in-out infinite; animation-delay: -6s; }
      .pt4 { animation: p4 16s ease-in-out infinite; animation-delay: -2s; }
      .pt5 { animation: p5 11s ease-in-out infinite; animation-delay: -8s; }
      .pt6 { animation: p6 13s ease-in-out infinite; animation-delay: -4s; }
      .pt7 { animation: p1 15s ease-in-out infinite; animation-delay: -1s; }
      .pt8 { animation: p2 9s ease-in-out infinite; animation-delay: -5s; }
      .pt9 { animation: p3 17s ease-in-out infinite; animation-delay: -7s; }
      .pt10 { animation: p4 12s ease-in-out infinite; animation-delay: -9s; }
      .pt11 { animation: p5 14s ease-in-out infinite; animation-delay: -11s; }
      .pt12 { animation: p6 10s ease-in-out infinite; animation-delay: -3.5s; }
    </style>

    <filter id="blur-heavy">
      <feGaussianBlur stdDeviation="55"/>
    </filter>
    <filter id="blur-med">
      <feGaussianBlur stdDeviation="30"/>
    </filter>
    <filter id="noise">
      <feTurbulence type="fractalNoise" baseFrequency="0.65" numOctaves="3" stitchTiles="stitch"/>
      <feColorMatrix type="saturate" values="0"/>
    </filter>

    <linearGradient id="sphere1-grad" x1="0" y1="0" x2="1" y2="1">
      <stop offset="0%" stop-color="#0a1e78" stop-opacity="0.85"/>
      <stop offset="100%" stop-color="#1438b4" stop-opacity="0.5"/>
    </linearGradient>
    <linearGradient id="sphere2-grad" x1="1" y1="1" x2="0" y2="0">
      <stop offset="0%" stop-color="#1e5adc" stop-opacity="0.75"/>
      <stop offset="100%" stop-color="#0096ff" stop-opacity="0.4"/>
    </linearGradient>
    <linearGradient id="sphere3-grad" x1="0" y1="0" x2="1" y2="1">
      <stop offset="0%" stop-color="#0f32a0" stop-opacity="0.45"/>
      <stop offset="100%" stop-color="#3c8cff" stop-opacity="0.25"/>
    </linearGradient>
    <radialGradient id="glow-grad" cx="50%" cy="50%" r="50%">
      <stop offset="0%" stop-color="#1e50dc" stop-opacity="0.15"/>
      <stop offset="100%" stop-color="#1e50dc" stop-opacity="0"/>
    </radialGradient>

    <clipPath id="frame-clip">
      <rect width="800" height="900" rx="12"/>
    </clipPath>
  </defs>

  <g clip-path="url(#frame-clip)">
    <!-- Background -->
    <rect width="800" height="900" fill="#050510"/>

    <!-- Spheres -->
    <circle class="sphere1" cx="0" cy="0" r="240" fill="url(#sphere1-grad)" filter="url(#blur-heavy)"/>
    <circle class="sphere2" cx="0" cy="0" r="270" fill="url(#sphere2-grad)" filter="url(#blur-heavy)"/>
    <circle class="sphere3" cx="0" cy="0" r="180" fill="url(#sphere3-grad)" filter="url(#blur-heavy)"/>

    <!-- Glow center -->
    <ellipse class="glow-el" cx="0" cy="0" rx="200" ry="200" fill="url(#glow-grad)" filter="url(#blur-med)"/>

    <!-- Grid overlay -->
    <g opacity="0.03">
      <!-- Vertical lines -->
      <line x1="0" y1="0" x2="0" y2="900" stroke="white" stroke-width="1"/>
      <line x1="36" y1="0" x2="36" y2="900" stroke="white" stroke-width="1"/>
      <line x1="72" y1="0" x2="72" y2="900" stroke="white" stroke-width="1"/>
      <line x1="108" y1="0" x2="108" y2="900" stroke="white" stroke-width="1"/>
      <line x1="144" y1="0" x2="144" y2="900" stroke="white" stroke-width="1"/>
      <line x1="180" y1="0" x2="180" y2="900" stroke="white" stroke-width="1"/>
      <line x1="216" y1="0" x2="216" y2="900" stroke="white" stroke-width="1"/>
      <line x1="252" y1="0" x2="252" y2="900" stroke="white" stroke-width="1"/>
      <line x1="288" y1="0" x2="288" y2="900" stroke="white" stroke-width="1"/>
      <line x1="324" y1="0" x2="324" y2="900" stroke="white" stroke-width="1"/>
      <line x1="360" y1="0" x2="360" y2="900" stroke="white" stroke-width="1"/>
      <line x1="396" y1="0" x2="396" y2="900" stroke="white" stroke-width="1"/>
      <line x1="432" y1="0" x2="432" y2="900" stroke="white" stroke-width="1"/>
      <line x1="468" y1="0" x2="468" y2="900" stroke="white" stroke-width="1"/>
      <line x1="504" y1="0" x2="504" y2="900" stroke="white" stroke-width="1"/>
      <line x1="540" y1="0" x2="540" y2="900" stroke="white" stroke-width="1"/>
      <line x1="576" y1="0" x2="576" y2="900" stroke="white" stroke-width="1"/>
      <line x1="612" y1="0" x2="612" y2="900" stroke="white" stroke-width="1"/>
      <line x1="648" y1="0" x2="648" y2="900" stroke="white" stroke-width="1"/>
      <line x1="684" y1="0" x2="684" y2="900" stroke="white" stroke-width="1"/>
      <line x1="720" y1="0" x2="720" y2="900" stroke="white" stroke-width="1"/>
      <line x1="756" y1="0" x2="756" y2="900" stroke="white" stroke-width="1"/>
      <line x1="792" y1="0" x2="792" y2="900" stroke="white" stroke-width="1"/>
      <!-- Horizontal lines -->
      <line x1="0" y1="0" x2="800" y2="0" stroke="white" stroke-width="1"/>
      <line x1="0" y1="36" x2="800" y2="36" stroke="white" stroke-width="1"/>
      <line x1="0" y1="72" x2="800" y2="72" stroke="white" stroke-width="1"/>
      <line x1="0" y1="108" x2="800" y2="108" stroke="white" stroke-width="1"/>
      <line x1="0" y1="144" x2="800" y2="144" stroke="white" stroke-width="1"/>
      <line x1="0" y1="180" x2="800" y2="180" stroke="white" stroke-width="1"/>
      <line x1="0" y1="216" x2="800" y2="216" stroke="white" stroke-width="1"/>
      <line x1="0" y1="252" x2="800" y2="252" stroke="white" stroke-width="1"/>
      <line x1="0" y1="288" x2="800" y2="288" stroke="white" stroke-width="1"/>
      <line x1="0" y1="324" x2="800" y2="324" stroke="white" stroke-width="1"/>
      <line x1="0" y1="360" x2="800" y2="360" stroke="white" stroke-width="1"/>
      <line x1="0" y1="396" x2="800" y2="396" stroke="white" stroke-width="1"/>
      <line x1="0" y1="432" x2="800" y2="432" stroke="white" stroke-width="1"/>
      <line x1="0" y1="468" x2="800" y2="468" stroke="white" stroke-width="1"/>
      <line x1="0" y1="504" x2="800" y2="504" stroke="white" stroke-width="1"/>
      <line x1="0" y1="540" x2="800" y2="540" stroke="white" stroke-width="1"/>
      <line x1="0" y1="576" x2="800" y2="576" stroke="white" stroke-width="1"/>
      <line x1="0" y1="612" x2="800" y2="612" stroke="white" stroke-width="1"/>
      <line x1="0" y1="648" x2="800" y2="648" stroke="white" stroke-width="1"/>
      <line x1="0" y1="684" x2="800" y2="684" stroke="white" stroke-width="1"/>
      <line x1="0" y1="720" x2="800" y2="720" stroke="white" stroke-width="1"/>
      <line x1="0" y1="756" x2="800" y2="756" stroke="white" stroke-width="1"/>
      <line x1="0" y1="792" x2="800" y2="792" stroke="white" stroke-width="1"/>
      <line x1="0" y1="828" x2="800" y2="828" stroke="white" stroke-width="1"/>
      <line x1="0" y1="864" x2="800" y2="864" stroke="white" stroke-width="1"/>
      <line x1="0" y1="900" x2="800" y2="900" stroke="white" stroke-width="1"/>
    </g>

    <!-- Particles -->
    <circle class="pt1" cx="120" cy="200" r="1.5" fill="white"/>
    <circle class="pt2" cx="300" cy="400" r="1" fill="white"/>
    <circle class="pt3" cx="500" cy="150" r="2" fill="white"/>
    <circle class="pt4" cx="650" cy="600" r="1.5" fill="white"/>
    <circle class="pt5" cx="200" cy="700" r="1" fill="white"/>
    <circle class="pt6" cx="700" cy="300" r="2" fill="white"/>
    <circle class="pt7" cx="400" cy="800" r="1" fill="white"/>
    <circle class="pt8" cx="80" cy="500" r="1.5" fill="white"/>
    <circle class="pt9" cx="600" cy="750" r="1" fill="white"/>
    <circle class="pt10" cx="350" cy="50" r="2" fill="white"/>
    <circle class="pt11" cx="750" cy="450" r="1" fill="white"/>
    <circle class="pt12" cx="450" cy="650" r="1.5" fill="white"/>

    <!-- HEADER -->
    <!-- Avatar circle -->
    <clipPath id="avatar-clip">
      <circle cx="88" cy="88" r="36"/>
    </clipPath>
    <circle cx="88" cy="88" r="37" fill="none" stroke="rgba(255,255,255,0.12)" stroke-width="1.5"/>
    <image href="https://avatars.githubusercontent.com/ZellTBH" x="52" y="52" width="72" height="72" clip-path="url(#avatar-clip)"/>

    <!-- Name + subtitle -->
    <text x="148" y="76" font-family="system-ui, sans-serif" font-size="20" font-weight="600" fill="#e6edf3">Sacha / Breaking Frame</text>
    <text x="148" y="98" font-family="system-ui, sans-serif" font-size="12" fill="#8b949e">just a nerd who makes stuff and games</text>

    <!-- Badges -->
    <rect x="148" y="108" width="100" height="20" rx="4" fill="rgba(6,78,59,0.4)" stroke="rgba(255,255,255,0.08)" stroke-width="0.5"/>
    <text x="158" y="122" font-family="system-ui, sans-serif" font-size="11" fill="#6ee7b7">📍 Brussels, BE</text>

    <rect x="256" y="108" width="148" height="20" rx="4" fill="rgba(10,30,120,0.5)" stroke="rgba(255,255,255,0.08)" stroke-width="0.5"/>
    <text x="266" y="122" font-family="system-ui, sans-serif" font-size="11" fill="#93c5fd">⬡ Breaking Frame Studio</text>

    <rect x="412" y="108" width="132" height="20" rx="4" fill="rgba(6,78,59,0.3)" stroke="rgba(255,255,255,0.08)" stroke-width="0.5"/>
    <circle class="dot-blink" cx="423" cy="118" r="3" fill="#34d399"/>
    <text x="432" y="122" font-family="system-ui, sans-serif" font-size="11" fill="#34d399">Building something</text>

    <!-- Divider -->
    <line x1="40" y1="148" x2="760" y2="148" stroke="rgba(255,255,255,0.06)" stroke-width="0.5"/>

    <!-- TECH STACK -->
    <text x="40" y="170" font-family="system-ui, sans-serif" font-size="10" fill="rgba(255,255,255,0.2)" letter-spacing="1.5">TECH STACK</text>

    <!-- Pills row 1 -->
    <rect x="40" y="180" width="124" height="22" rx="4" fill="rgba(10,30,100,0.6)" stroke="rgba(147,197,253,0.15)" stroke-width="0.5"/>
    <text x="52" y="195" font-family="system-ui, sans-serif" font-size="11" font-weight="500" fill="#93c5fd">Unreal Engine 5</text>
    <rect x="172" y="180" width="52" height="22" rx="4" fill="rgba(10,30,100,0.6)" stroke="rgba(147,197,253,0.15)" stroke-width="0.5"/>
    <text x="184" y="195" font-family="system-ui, sans-serif" font-size="11" font-weight="500" fill="#93c5fd">Unity</text>
    <rect x="232" y="180" width="30" height="22" rx="4" fill="rgba(5,20,80,0.6)" stroke="rgba(191,219,254,0.15)" stroke-width="0.5"/>
    <text x="240" y="195" font-family="system-ui, sans-serif" font-size="11" font-weight="500" fill="#bfdbfe">C#</text>
    <rect x="270" y="180" width="72" height="22" rx="4" fill="rgba(5,20,80,0.6)" stroke="rgba(191,219,254,0.15)" stroke-width="0.5"/>
    <text x="280" y="195" font-family="system-ui, sans-serif" font-size="11" font-weight="500" fill="#bfdbfe">Blueprint</text>
    <rect x="350" y="180" width="60" height="22" rx="4" fill="rgba(8,25,90,0.6)" stroke="rgba(96,165,250,0.15)" stroke-width="0.5"/>
    <text x="360" y="195" font-family="system-ui, sans-serif" font-size="11" font-weight="500" fill="#60a5fa">Blender</text>
    <rect x="418" y="180" width="84" height="22" rx="4" fill="rgba(8,25,90,0.6)" stroke="rgba(96,165,250,0.15)" stroke-width="0.5"/>
    <text x="428" y="195" font-family="system-ui, sans-serif" font-size="11" font-weight="500" fill="#60a5fa">Adobe Suite</text>

    <!-- Pills row 2 -->
    <rect x="40" y="210" width="110" height="22" rx="4" fill="rgba(8,25,90,0.6)" stroke="rgba(96,165,250,0.15)" stroke-width="0.5"/>
    <text x="50" y="225" font-family="system-ui, sans-serif" font-size="11" font-weight="500" fill="#60a5fa">DaVinci Resolve</text>
    <rect x="158" y="210" width="78" height="22" rx="4" fill="rgba(12,28,95,0.6)" stroke="rgba(129,140,248,0.15)" stroke-width="0.5"/>
    <text x="168" y="225" font-family="system-ui, sans-serif" font-size="11" font-weight="500" fill="#818cf8">HTML / CSS</text>
    <rect x="244" y="210" width="66" height="22" rx="4" fill="rgba(12,28,95,0.6)" stroke="rgba(129,140,248,0.15)" stroke-width="0.5"/>
    <text x="254" y="225" font-family="system-ui, sans-serif" font-size="11" font-weight="500" fill="#818cf8">Electron</text>
    <rect x="318" y="210" width="36" height="22" rx="4" fill="rgba(5,20,80,0.6)" stroke="rgba(191,219,254,0.15)" stroke-width="0.5"/>
    <text x="328" y="225" font-family="system-ui, sans-serif" font-size="11" font-weight="500" fill="#bfdbfe">Git</text>

    <!-- Divider -->
    <line x1="40" y1="248" x2="760" y2="248" stroke="rgba(255,255,255,0.06)" stroke-width="0.5"/>

    <!-- FOCUS AREAS -->
    <text x="40" y="270" font-family="system-ui, sans-serif" font-size="10" fill="rgba(255,255,255,0.2)" letter-spacing="1.5">FOCUS AREAS</text>

    <!-- 4 stat cards -->
    <!-- Card 1 -->
    <rect x="40" y="280" width="170" height="68" rx="6" fill="rgba(255,255,255,0.03)" stroke="rgba(255,255,255,0.07)" stroke-width="0.5"/>
    <text x="56" y="300" font-family="system-ui, sans-serif" font-size="10" fill="rgba(255,255,255,0.25)" letter-spacing="1">STUDIO</text>
    <text x="56" y="322" font-family="system-ui, sans-serif" font-size="16" font-weight="600" fill="#e6edf3">Breaking Frame</text>
    <text x="56" y="338" font-family="system-ui, sans-serif" font-size="11" fill="rgba(255,255,255,0.3)">Work in progress</text>

    <!-- Card 2 -->
    <rect x="220" y="280" width="170" height="68" rx="6" fill="rgba(255,255,255,0.03)" stroke="rgba(255,255,255,0.07)" stroke-width="0.5"/>
    <text x="236" y="300" font-family="system-ui, sans-serif" font-size="10" fill="rgba(255,255,255,0.25)" letter-spacing="1">CURRENT PROJECT</text>
    <text x="236" y="322" font-family="system-ui, sans-serif" font-size="16" font-weight="600" fill="#e6edf3">Nexus</text>
    <text x="236" y="338" font-family="system-ui, sans-serif" font-size="11" fill="rgba(255,255,255,0.3)">Triple-I, Prototype phase</text>

    <!-- Card 3 -->
    <rect x="400" y="280" width="170" height="68" rx="6" fill="rgba(255,255,255,0.03)" stroke="rgba(255,255,255,0.07)" stroke-width="0.5"/>
    <text x="416" y="300" font-family="system-ui, sans-serif" font-size="10" fill="rgba(255,255,255,0.25)" letter-spacing="1">ENGINE</text>
    <text x="416" y="322" font-family="system-ui, sans-serif" font-size="16" font-weight="600" fill="#e6edf3">UE5 &amp; Unity</text>
    <text x="416" y="338" font-family="system-ui, sans-serif" font-size="11" fill="rgba(255,255,255,0.3)">Production &amp; prototyping</text>

    <!-- Card 4 -->
    <rect x="580" y="280" width="180" height="68" rx="6" fill="rgba(255,255,255,0.03)" stroke="rgba(255,255,255,0.07)" stroke-width="0.5"/>
    <text x="596" y="300" font-family="system-ui, sans-serif" font-size="10" fill="rgba(255,255,255,0.25)" letter-spacing="1">CURRENT LEARNING</text>
    <text x="596" y="322" font-family="system-ui, sans-serif" font-size="16" font-weight="600" fill="#e6edf3">C# &amp; Unity</text>
    <text x="596" y="338" font-family="system-ui, sans-serif" font-size="11" fill="rgba(255,255,255,0.3)">Game dev formation</text>

    <!-- Divider -->
    <line x1="40" y1="368" x2="760" y2="368" stroke="rgba(255,255,255,0.06)" stroke-width="0.5"/>

    <!-- FAVOURITE GAMES -->
    <text x="40" y="390" font-family="system-ui, sans-serif" font-size="10" fill="rgba(255,255,255,0.2)" letter-spacing="1.5">FAVOURITE GAMES</text>

    <!-- Game card 1 -->
    <rect x="40" y="400" width="228" height="180" rx="6" fill="rgba(255,255,255,0.03)" stroke="rgba(255,255,255,0.07)" stroke-width="0.5"/>
    <image href="https://upload.wikimedia.org/wikipedia/en/thumb/9/99/FinalFantasyX_PS2_NTSC.jpg/220px-FinalFantasyX_PS2_NTSC.jpg" x="40" y="400" width="228" height="150" preserveAspectRatio="xMidYMid slice"/>
    <rect x="40" y="400" width="228" height="150" rx="6" fill="rgba(5,5,16,0.2)"/>
    <rect x="40" y="549" width="228" height="31" rx="0" fill="rgba(255,255,255,0.03)"/>
    <rect x="40" y="544" width="228" height="36" rx="0"/>
    <rect x="40" y="549" width="228" height="31" rx="0" fill="rgba(5,5,16,0.6)"/>
    <text x="154" y="570" font-family="system-ui, sans-serif" font-size="11" font-weight="500" fill="#c9d1d9" text-anchor="middle">Final Fantasy X</text>
    <!-- bottom corners -->
    <rect x="40" y="568" width="10" height="12" fill="rgba(5,5,16,0.6)"/>
    <rect x="258" y="568" width="10" height="12" fill="rgba(5,5,16,0.6)"/>
    <rect x="40" y="568" width="228" height="12" rx="0" fill="rgba(5,5,16,0.6)"/>
    <rect x="40" y="574" width="228" height="6" rx="6" fill="rgba(5,5,16,0.6)"/>

    <!-- Game card 2 -->
    <rect x="286" y="400" width="228" height="180" rx="6" fill="rgba(255,255,255,0.03)" stroke="rgba(255,255,255,0.07)" stroke-width="0.5"/>
    <image href="https://upload.wikimedia.org/wikipedia/en/b/b9/Elden_Ring_Box_art.jpg" x="286" y="400" width="228" height="150" preserveAspectRatio="xMidYMid slice"/>
    <rect x="286" y="400" width="228" height="150" rx="6" fill="rgba(5,5,16,0.2)"/>
    <rect x="286" y="549" width="228" height="31" fill="rgba(5,5,16,0.6)"/>
    <rect x="286" y="574" width="228" height="6" rx="6" fill="rgba(5,5,16,0.6)"/>
    <text x="400" y="570" font-family="system-ui, sans-serif" font-size="11" font-weight="500" fill="#c9d1d9" text-anchor="middle">Elden Ring Nightreign</text>

    <!-- Game card 3 -->
    <rect x="532" y="400" width="228" height="180" rx="6" fill="rgba(255,255,255,0.03)" stroke="rgba(255,255,255,0.07)" stroke-width="0.5"/>
    <image href="https://upload.wikimedia.org/wikipedia/en/6/67/Granblue_Fantasy_Relink_cover_art.jpg" x="532" y="400" width="228" height="150" preserveAspectRatio="xMidYMid slice"/>
    <rect x="532" y="400" width="228" height="150" rx="6" fill="rgba(5,5,16,0.2)"/>
    <rect x="532" y="549" width="228" height="31" fill="rgba(5,5,16,0.6)"/>
    <rect x="532" y="574" width="228" height="6" rx="6" fill="rgba(5,5,16,0.6)"/>
    <text x="646" y="570" font-family="system-ui, sans-serif" font-size="11" font-weight="500" fill="#c9d1d9" text-anchor="middle">Granblue Fantasy Relink</text>

    <!-- Divider -->
    <line x1="40" y1="600" x2="760" y2="600" stroke="rgba(255,255,255,0.06)" stroke-width="0.5"/>

    <!-- LINKS -->
    <text x="40" y="622" font-family="system-ui, sans-serif" font-size="10" fill="rgba(255,255,255,0.2)" letter-spacing="1.5">LINKS</text>

    <rect x="40" y="632" width="110" height="26" rx="4" fill="rgba(255,255,255,0.04)" stroke="rgba(255,255,255,0.1)" stroke-width="0.5"/>
    <text x="56" y="649" font-family="system-ui, sans-serif" font-size="12" fill="rgba(255,255,255,0.6)">📸 sach__tbh</text>

    <rect x="158" y="632" width="196" height="26" rx="4" fill="rgba(255,255,255,0.04)" stroke="rgba(255,255,255,0.1)" stroke-width="0.5"/>
    <text x="174" y="649" font-family="system-ui, sans-serif" font-size="12" fill="rgba(255,255,255,0.6)">📬 nottetsacha@gmail.com</text>

    <!-- Footer -->
    <text x="760" y="682" font-family="system-ui, sans-serif" font-size="10" fill="rgba(255,255,255,0.12)" text-anchor="end">readme · breaking frame studio · 2025</text>

    <!-- Border -->
    <rect width="800" height="900" rx="12" fill="none" stroke="rgba(255,255,255,0.06)" stroke-width="1"/>
  </g>
</svg>
